P2
# Ma premiere img
# PGM
10 10 255 
255 255   0   0   0   0   0   0 255 255
255   0 230 230 230 230 230 230   0 255
  0 230 230 230 230 230 230 230 230   0
  0 230  50  50 230 230  50  50 230   0
  0 230 255  50 230 230 255  50 230   0
  0 230 230 230 230 230 230 230 230   0
  0 230  50 230 230 230 230  50 230   0
  0 230 230  50  50  50  50 230 230   0
 255  0 230 230 230 230 230 230   0 255
 255 255  0   0   0   0   0   0 255 255